<?xml version="1.0" encoding="UTF-8" standalone="no"?>
<!-- Created with Inkscape (http://www.inkscape.org/) -->

<svg
   width="600"
   height="300"
   viewBox="0 0 600 300"
   version="1.1"
   id="svg5"
   xmlns="http://www.w3.org/2000/svg"
   xmlns:svg="http://www.w3.org/2000/svg">
  <defs
     id="defs2" />
  <g
     id="PuzzleLayer">
    <path
       style="opacity:1;fill:#ff7676;fill-opacity:1;stroke:none;stroke-width:1.36441;stroke-dasharray:none"
       d="M 154.46471,82.556088 58.118943,80.760721 152.66933,178.90186 Z"
       id="T1" />
    <path
       style="opacity:1;fill:#6265ff;fill-opacity:1;stroke:none;stroke-width:1.36277"
       d="M 73.599246,194.3404 169.949,195.90643 75.165266,97.990608 Z"
       id="T2" />
    <path
       style="opacity:1;fill:#ffcc4d;fill-opacity:1;stroke:none;stroke-width:1.36277"
       d="m 74.709489,146.28031 -0.44096,96.36152 -47.96028,-48.40124 z"
       id="T3" />
    <path
       style="opacity:1;fill:#ff49e1;fill-opacity:1;stroke:none;stroke-width:2.72554;stroke-linecap:butt;stroke-opacity:1"
       d="m 216.67325,194.72905 -48.18122,0.0545 48.23573,48.12671 z"
       id="T4" />
    <path
       style="opacity:1;fill:#66fff4;fill-opacity:1;stroke:none;stroke-width:1.33075"
       d="m 154.11988,129.34372 47.72541,46.0346 -0.68665,-47.0446 -47.7254,-46.034586 z"
       id="P" />
    <path
       d="m 108.79327,227.08488 -34.028283,-34.1084 -0.0801,68.13862 z"
       style="opacity:1;fill:#ad54ff;stroke-width:1.36277"
       id="path1" />
    <path
       style="opacity:1;fill:#66ff43;fill-opacity:1;stroke:none;stroke-width:2.72554;stroke-linecap:butt;stroke-opacity:1"
       d="m 79.822987,47.577513 34.069283,-34.069299 34.0693,34.069299 -34.0693,34.069291 z"
       id="S" />
  </g>
  <g
     id="OutlineLayer"
     transform="translate(0.36136717,0.79441293)">
    <path
       style="fill:none;stroke:#000000;stroke-width:1.36441;stroke-dasharray:none"
       d="M 110.77933,12.240607 78.534806,46.543291 112.83749,80.159921 58.639249,78.787813 73.046376,96.625209 v 50.081921 l -45.965596,48.02376 48.023757,48.70981 -0.686053,17.83739 34.302676,-36.36084 -32.244515,-30.87242 91.931185,0.68606 48.02376,48.02375 -0.68605,-48.70981 -45.9656,-0.68605 -17.15134,-16.46529 1.37211,-48.70981 47.3377,48.02376 V 126.12552 L 154.68676,80.845974 114.89565,80.159921 147.82622,45.857237 Z"
       id="path2" />
  </g>
  <g
     id="TimebarLayer"
     style="image-rendering:auto">
    <rect
       style="fill:#00b500;fill-opacity:1;stroke:none;stroke-width:2.90695;stroke-dasharray:none;stroke-opacity:1"
       id="TimebarInterior"
       width="600"
       height="10"
       x="0"
       y="290" />
    <rect
       style="fill:none;fill-opacity:1;stroke:#000000;stroke-width:1.45347;stroke-dasharray:none;stroke-opacity:1"
       id="TimebarOutline"
       width="600"
       height="10"
       x="0"
       y="290" />
  </g>
</svg>
