<?xml version="1.0" encoding="UTF-8" standalone="no"?>
<!-- Created with Inkscape (http://www.inkscape.org/) -->

<svg
   width="600"
   height="300"
   viewBox="0 0 600 300"
   version="1.1"
   id="svg5"
   sodipodi:docname="puzzle-runman.svg"
   inkscape:version="1.4.3 (0d15f750, 2025-12-25)"
   xmlns:inkscape="http://www.inkscape.org/namespaces/inkscape"
   xmlns:sodipodi="http://sodipodi.sourceforge.net/DTD/sodipodi-0.dtd"
   xmlns="http://www.w3.org/2000/svg"
   xmlns:svg="http://www.w3.org/2000/svg">
  <sodipodi:namedview
     id="namedview1"
     pagecolor="#ffffff"
     bordercolor="#000000"
     borderopacity="0.25"
     inkscape:showpageshadow="2"
     inkscape:pageopacity="0.0"
     inkscape:pagecheckerboard="0"
     inkscape:deskcolor="#d1d1d1"
     showgrid="true"
     inkscape:zoom="6.1256219"
     inkscape:cx="75.665786"
     inkscape:cy="167.41157"
     inkscape:window-width="1470"
     inkscape:window-height="822"
     inkscape:window-x="42"
     inkscape:window-y="38"
     inkscape:window-maximized="0"
     inkscape:current-layer="OutlineLayer">
    <inkscape:grid
       id="grid1"
       units="px"
       originx="0"
       originy="0"
       spacingx="1"
       spacingy="1"
       empcolor="#0099e5"
       empopacity="0.30196078"
       color="#0099e5"
       opacity="0.14901961"
       empspacing="5"
       enabled="true"
       visible="true" />
  </sodipodi:namedview>
  <defs
     id="defs2" />
  <g
     id="PuzzleLayer">
    <path
       style="opacity:1;fill:#ff7676;fill-opacity:1;stroke:none;stroke-width:1.36441;stroke-dasharray:none"
       d="M 154.46471,82.556088 58.118943,80.760721 152.66933,178.90186 Z"
       id="T1" />
    <path
       style="opacity:1;fill:#6265ff;fill-opacity:1;stroke:none;stroke-width:1.36277"
       d="M 73.599246,194.3404 169.949,195.90643 75.165266,97.990608 Z"
       id="T2" />
    <path
       style="opacity:1;fill:#ffcc4d;fill-opacity:1;stroke:none;stroke-width:1.36277"
       d="m 74.709489,146.28031 -0.44096,96.36152 -47.96028,-48.40124 z"
       id="T3" />
    <path
       style="opacity:1;fill:#ff49e1;fill-opacity:1;stroke:none;stroke-width:2.72554;stroke-linecap:butt;stroke-opacity:1"
       d="m 216.67325,194.72905 -48.18122,0.0545 48.23573,48.12671 z"
       id="T4" />
    <path
       style="opacity:1;fill:#66fff4;fill-opacity:1;stroke:none;stroke-width:1.33075"
       d="m 154.11988,129.34372 47.72541,46.0346 -0.68665,-47.0446 -47.7254,-46.034586 z"
       id="P" />
    <path
       d="m 108.33872,228.18459 -34.028278,-34.1084 -0.0801,68.13862 z"
       style="opacity:1;fill:#ad54ff;stroke-width:1.36277"
       id="path1"
       inkscape:label="T5" />
    <path
       style="opacity:1;fill:#66ff43;fill-opacity:1;stroke:none;stroke-width:2.72554;stroke-linecap:butt;stroke-opacity:1"
       d="m 79.822987,47.577513 34.069283,-34.069299 34.0693,34.069299 -34.0693,34.069291 z"
       id="S" />
  </g>
  <g
     id="OutlineLayer"
     transform="translate(0.36136717,0.79441293)">
    <path
       d="m 113.73238,11.42629 -35.974607,35.50586 33.371097,32.927734 -54.892581,-0.908203 17.716797,19.154297 -0.449219,48.083982 -48.009765,47.09571 47.560546,48.93164 0.484375,20.38671 36.158207,-35.20703 -32.949222,-33.39453 91.695312,1.33594 48.69531,48.69531 v -50.9707 l -47.66992,0.45703 -16.86914,-17.31445 0.87305,-47.23242 49.15234,47.7871 -0.94531,-49.66601 -47.20899,-45.833985 -39.14648,-1.320313 33.46094,-33.460937 z m -0.006,1.921875 33.12891,33.13086 L 113.27535,80.059103 79.701133,46.93215 Z m -54.320309,67.021485 55.105469,0.910156 -0.002,-0.002 39.38867,1.328125 46.42773,45.076172 0.8711,45.78711 -49.0293,-47.66797 -0.94336,50.94922 16.77539,17.2168 -94.562499,-1.37696 34.324219,34.78711 -32.933594,32.06836 -0.423828,-17.79687 -46.984375,-48.3418 47.443359,-46.53906 0.460938,-49.191409 z M 215.77535,194.43996 v 46.30078 l -45.86133,-45.85937 z"
       style="baseline-shift:baseline;display:inline;overflow:visible;opacity:1;enable-background:accumulate;stop-color:#000000;stop-opacity:1;stroke-width:0.5;stroke-dasharray:none"
       id="path2" />
  </g>
  <g
     id="TimebarLayer"
     style="image-rendering:auto">
    <rect
       style="fill:#00b500;fill-opacity:1;stroke:none;stroke-width:2.90695;stroke-dasharray:none;stroke-opacity:1"
       id="TimebarInterior"
       width="600"
       height="10"
       x="0"
       y="290" />
    <rect
       style="fill:none;fill-opacity:1;stroke:#000000;stroke-width:1.45347;stroke-dasharray:none;stroke-opacity:1"
       id="TimebarOutline"
       width="600"
       height="10"
       x="0"
       y="290" />
  </g>
</svg>
